<svg width="24" height="24" viewBox="0 0 24 24" fill="none" xmlns="http://www.w3.org/2000/svg">
<path d="M10.8866 19.4852L10.8859 19.4846C8.30104 17.1406 6.19578 15.2282 4.73088 13.436C3.27148 11.6505 2.5 10.0456 2.5 8.32495C2.5 5.51169 4.69555 3.32495 7.5 3.32495C9.08885 3.32495 10.6221 4.06718 11.6206 5.23059L12 5.67267L12.3794 5.23059C13.3779 4.06718 14.9112 3.32495 16.5 3.32495C19.3045 3.32495 21.5 5.51169 21.5 8.32495C21.5 10.0456 20.7285 11.6505 19.2691 13.436C17.8042 15.2282 15.699 17.1406 13.1141 19.4846L13.1134 19.4852L12 20.4988L10.8866 19.4852Z" stroke="#CBCBCB"/>
</svg>
